<?xml version="1.0" encoding="UTF-8"?>
<svg xmlns="http://www.w3.org/2000/svg" xmlns:xlink="http://www.w3.org/1999/xlink" width="720px" height="720px" viewBox="0 0 360 360" version="1.1">
<g id="surface1">
<path style=" stroke:none;fill-rule:nonzero;fill:rgb(0%,0%,0%);fill-opacity:1;" d="M 13.332031 60 L 13.332031 106.667969 L 106.667969 106.667969 L 106.667969 13.332031 L 13.332031 13.332031 Z M 93.332031 60 L 93.332031 93.332031 L 26.667969 93.332031 L 26.667969 26.667969 L 93.332031 26.667969 Z M 93.332031 60 "/>
<path style=" stroke:none;fill-rule:nonzero;fill:rgb(0%,0%,0%);fill-opacity:1;" d="M 40 60 L 40 80 L 80 80 L 80 40 L 40 40 Z M 40 60 "/>
<path style=" stroke:none;fill-rule:nonzero;fill:rgb(0%,0%,0%);fill-opacity:1;" d="M 133.332031 20 L 133.332031 26.667969 L 120 26.667969 L 120 53.332031 L 133.332031 53.332031 L 133.332031 40 L 173.332031 40 L 173.332031 13.332031 L 133.332031 13.332031 Z M 133.332031 20 "/>
<path style=" stroke:none;fill-rule:nonzero;fill:rgb(0%,0%,0%);fill-opacity:1;" d="M 186.667969 20 L 186.667969 26.667969 L 200 26.667969 L 200 66.667969 L 160 66.667969 L 160 53.332031 L 146.667969 53.332031 L 146.667969 66.667969 L 120 66.667969 L 120 120 L 93.332031 120 L 93.332031 133.332031 L 66.667969 133.332031 L 66.667969 120 L 53.332031 120 L 53.332031 133.332031 L 40 133.332031 L 40 120 L 13.332031 120 L 13.332031 133.332031 L 26.667969 133.332031 L 26.667969 173.332031 L 13.332031 173.332031 L 13.332031 186.667969 L 26.667969 186.667969 L 26.667969 200 L 13.332031 200 L 13.332031 213.332031 L 26.667969 213.332031 L 26.667969 226.667969 L 13.332031 226.667969 L 13.332031 240 L 40 240 L 40 226.667969 L 66.667969 226.667969 L 66.667969 240 L 80 240 L 80 213.332031 L 106.667969 213.332031 L 106.667969 226.667969 L 93.332031 226.667969 L 93.332031 240 L 120 240 L 120 266.667969 L 133.332031 266.667969 L 133.332031 293.332031 L 120 293.332031 L 120 306.667969 L 133.332031 306.667969 L 133.332031 320 L 120 320 L 120 346.667969 L 133.332031 346.667969 L 133.332031 333.332031 L 160 333.332031 L 160 346.667969 L 200 346.667969 L 200 320 L 186.667969 320 L 186.667969 333.332031 L 160 333.332031 L 160 320 L 146.667969 320 L 146.667969 306.667969 L 133.332031 306.667969 L 133.332031 293.332031 L 146.667969 293.332031 L 146.667969 280 L 160 280 L 160 293.332031 L 173.332031 293.332031 L 173.332031 306.667969 L 200 306.667969 L 200 293.332031 L 213.332031 293.332031 L 213.332031 306.667969 L 240 306.667969 L 240 293.332031 L 266.667969 293.332031 L 266.667969 320 L 293.332031 320 L 293.332031 333.332031 L 306.667969 333.332031 L 306.667969 320 L 320 320 L 320 306.667969 L 333.332031 306.667969 L 333.332031 320 L 346.667969 320 L 346.667969 280 L 333.332031 280 L 333.332031 266.667969 L 346.667969 266.667969 L 346.667969 240 L 333.332031 240 L 333.332031 253.332031 L 320 253.332031 L 320 266.667969 L 306.667969 266.667969 L 306.667969 240 L 320 240 L 320 226.667969 L 333.332031 226.667969 L 333.332031 213.332031 L 346.667969 213.332031 L 346.667969 173.332031 L 320 173.332031 L 320 186.667969 L 306.667969 186.667969 L 306.667969 173.332031 L 293.332031 173.332031 L 293.332031 160 L 266.667969 160 L 266.667969 133.332031 L 293.332031 133.332031 L 293.332031 120 L 253.332031 120 L 253.332031 133.332031 L 240 133.332031 L 240 120 L 226.667969 120 L 226.667969 146.667969 L 253.332031 146.667969 L 253.332031 160 L 213.332031 160 L 213.332031 173.332031 L 226.667969 173.332031 L 226.667969 186.667969 L 240 186.667969 L 240 200 L 266.667969 200 L 266.667969 213.332031 L 280 213.332031 L 280 226.667969 L 226.667969 226.667969 L 226.667969 213.332031 L 213.332031 213.332031 L 213.332031 186.667969 L 200 186.667969 L 200 133.332031 L 213.332031 133.332031 L 213.332031 93.332031 L 226.667969 93.332031 L 226.667969 106.667969 L 240 106.667969 L 240 66.667969 L 226.667969 66.667969 L 226.667969 53.332031 L 213.332031 53.332031 L 213.332031 40 L 226.667969 40 L 226.667969 26.667969 L 240 26.667969 L 240 13.332031 L 186.667969 13.332031 Z M 160 73.332031 L 160 80 L 200 80 L 200 120 L 146.667969 120 L 146.667969 106.667969 L 133.332031 106.667969 L 133.332031 80 L 146.667969 80 L 146.667969 66.667969 L 160 66.667969 Z M 133.332031 126.667969 L 133.332031 133.332031 L 173.332031 133.332031 L 173.332031 146.667969 L 186.667969 146.667969 L 186.667969 160 L 173.332031 160 L 173.332031 173.332031 L 186.667969 173.332031 L 186.667969 186.667969 L 200 186.667969 L 200 213.332031 L 186.667969 213.332031 L 186.667969 226.667969 L 200 226.667969 L 200 253.332031 L 213.332031 253.332031 L 213.332031 266.667969 L 226.667969 266.667969 L 226.667969 293.332031 L 213.332031 293.332031 L 213.332031 280 L 186.667969 280 L 186.667969 293.332031 L 173.332031 293.332031 L 173.332031 280 L 186.667969 280 L 186.667969 266.667969 L 200 266.667969 L 200 253.332031 L 186.667969 253.332031 L 186.667969 226.667969 L 173.332031 226.667969 L 173.332031 213.332031 L 186.667969 213.332031 L 186.667969 186.667969 L 173.332031 186.667969 L 173.332031 200 L 160 200 L 160 146.667969 L 133.332031 146.667969 L 133.332031 160 L 120 160 L 120 186.667969 L 106.667969 186.667969 L 106.667969 200 L 66.667969 200 L 66.667969 186.667969 L 53.332031 186.667969 L 53.332031 213.332031 L 26.667969 213.332031 L 26.667969 200 L 40 200 L 40 186.667969 L 53.332031 186.667969 L 53.332031 173.332031 L 66.667969 173.332031 L 66.667969 186.667969 L 80 186.667969 L 80 173.332031 L 93.332031 173.332031 L 93.332031 160 L 120 160 L 120 120 L 133.332031 120 Z M 66.667969 140 L 66.667969 146.667969 L 80 146.667969 L 80 160 L 53.332031 160 L 53.332031 133.332031 L 66.667969 133.332031 Z M 106.667969 140 L 106.667969 146.667969 L 93.332031 146.667969 L 93.332031 133.332031 L 106.667969 133.332031 Z M 266.667969 166.667969 L 266.667969 173.332031 L 293.332031 173.332031 L 293.332031 200 L 306.667969 200 L 306.667969 213.332031 L 320 213.332031 L 320 186.667969 L 333.332031 186.667969 L 333.332031 213.332031 L 320 213.332031 L 320 226.667969 L 293.332031 226.667969 L 293.332031 200 L 280 200 L 280 186.667969 L 266.667969 186.667969 L 266.667969 173.332031 L 253.332031 173.332031 L 253.332031 160 L 266.667969 160 Z M 146.667969 180 L 146.667969 186.667969 L 133.332031 186.667969 L 133.332031 173.332031 L 146.667969 173.332031 Z M 133.332031 206.667969 L 133.332031 213.332031 L 160 213.332031 L 160 253.332031 L 173.332031 253.332031 L 173.332031 266.667969 L 160 266.667969 L 160 253.332031 L 146.667969 253.332031 L 146.667969 266.667969 L 133.332031 266.667969 L 133.332031 253.332031 L 146.667969 253.332031 L 146.667969 226.667969 L 133.332031 226.667969 L 133.332031 240 L 120 240 L 120 200 L 133.332031 200 Z M 280 260 L 280 280 L 240 280 L 240 240 L 280 240 Z M 320 286.667969 L 320 293.332031 L 306.667969 293.332031 L 306.667969 280 L 320 280 Z M 306.667969 313.332031 L 306.667969 320 L 293.332031 320 L 293.332031 306.667969 L 306.667969 306.667969 Z M 306.667969 313.332031 "/>
<path style=" stroke:none;fill-rule:nonzero;fill:rgb(0%,0%,0%);fill-opacity:1;" d="M 146.667969 93.332031 L 146.667969 106.667969 L 160 106.667969 L 160 80 L 146.667969 80 Z M 146.667969 93.332031 "/>
<path style=" stroke:none;fill-rule:nonzero;fill:rgb(0%,0%,0%);fill-opacity:1;" d="M 173.332031 100 L 173.332031 106.667969 L 186.667969 106.667969 L 186.667969 93.332031 L 173.332031 93.332031 Z M 173.332031 100 "/>
<path style=" stroke:none;fill-rule:nonzero;fill:rgb(0%,0%,0%);fill-opacity:1;" d="M 93.332031 180 L 93.332031 186.667969 L 106.667969 186.667969 L 106.667969 173.332031 L 93.332031 173.332031 Z M 93.332031 180 "/>
<path style=" stroke:none;fill-rule:nonzero;fill:rgb(0%,0%,0%);fill-opacity:1;" d="M 253.332031 260 L 253.332031 266.667969 L 266.667969 266.667969 L 266.667969 253.332031 L 253.332031 253.332031 Z M 253.332031 260 "/>
<path style=" stroke:none;fill-rule:nonzero;fill:rgb(0%,0%,0%);fill-opacity:1;" d="M 253.332031 60 L 253.332031 106.667969 L 346.667969 106.667969 L 346.667969 13.332031 L 253.332031 13.332031 Z M 333.332031 60 L 333.332031 93.332031 L 266.667969 93.332031 L 266.667969 26.667969 L 333.332031 26.667969 Z M 333.332031 60 "/>
<path style=" stroke:none;fill-rule:nonzero;fill:rgb(0%,0%,0%);fill-opacity:1;" d="M 280 60 L 280 80 L 320 80 L 320 40 L 280 40 Z M 280 60 "/>
<path style=" stroke:none;fill-rule:nonzero;fill:rgb(0%,0%,0%);fill-opacity:1;" d="M 306.667969 126.667969 L 306.667969 133.332031 L 333.332031 133.332031 L 333.332031 146.667969 L 320 146.667969 L 320 160 L 346.667969 160 L 346.667969 133.332031 L 333.332031 133.332031 L 333.332031 120 L 306.667969 120 Z M 306.667969 126.667969 "/>
<path style=" stroke:none;fill-rule:nonzero;fill:rgb(0%,0%,0%);fill-opacity:1;" d="M 13.332031 300 L 13.332031 346.667969 L 106.667969 346.667969 L 106.667969 253.332031 L 13.332031 253.332031 Z M 93.332031 300 L 93.332031 333.332031 L 26.667969 333.332031 L 26.667969 266.667969 L 93.332031 266.667969 Z M 93.332031 300 "/>
<path style=" stroke:none;fill-rule:nonzero;fill:rgb(0%,0%,0%);fill-opacity:1;" d="M 40 300 L 40 320 L 80 320 L 80 280 L 40 280 Z M 40 300 "/>
<path style=" stroke:none;fill-rule:nonzero;fill:rgb(0%,0%,0%);fill-opacity:1;" d="M 226.667969 326.667969 L 226.667969 333.332031 L 213.332031 333.332031 L 213.332031 346.667969 L 240 346.667969 L 240 320 L 226.667969 320 Z M 226.667969 326.667969 "/>
<path style=" stroke:none;fill-rule:nonzero;fill:rgb(0%,0%,0%);fill-opacity:1;" d="M 266.667969 340 L 266.667969 346.667969 L 280 346.667969 L 280 333.332031 L 266.667969 333.332031 Z M 266.667969 340 "/>
<path style=" stroke:none;fill-rule:nonzero;fill:rgb(0%,0%,0%);fill-opacity:1;" d="M 320 340 L 320 346.667969 L 346.667969 346.667969 L 346.667969 333.332031 L 320 333.332031 Z M 320 340 "/>
</g>
</svg>
